# drydock.obj - scaffolded once by `cargo run -p modelgen`.
# The checked-in file is the source of truth: edit it in Blender.
# Material names carry engine flags: _t1 team tint, _d0/_d1/_d2 detail channel.
mtllib drydock.mtl
o drydock
v -6.400000 0.000000 4.600000
v 6.400000 0.000000 4.600000
v 6.400000 0.500000 4.600000
v -6.400000 0.500000 4.600000
v 6.400000 0.000000 -4.600000
v -6.400000 0.000000 -4.600000
v -6.400000 0.500000 -4.600000
v 6.400000 0.500000 -4.600000
v -6.200000 0.500000 4.400000
v 6.200000 0.500000 4.400000
v 6.200000 0.620000 4.400000
v -6.200000 0.620000 4.400000
v 6.200000 0.500000 -4.400000
v -6.200000 0.500000 -4.400000
v -6.200000 0.620000 -4.400000
v 6.200000 0.620000 -4.400000
v -6.000000 0.500000 4.200000
v 6.000000 0.500000 4.200000
v 6.000000 0.620000 4.200000
v -6.000000 0.620000 4.200000
v 6.000000 0.500000 -4.200000
v -6.000000 0.500000 -4.200000
v -6.000000 0.620000 -4.200000
v 6.000000 0.620000 -4.200000
v -6.040000 0.620000 4.240000
v -4.026667 0.620000 4.240000
v -4.026667 1.000000 4.240000
v -6.040000 1.000000 4.240000
v -4.026667 0.620000 -4.240000
v -6.040000 0.620000 -4.240000
v -6.040000 1.000000 -4.240000
v -4.026667 1.000000 -4.240000
v -2.013333 0.620000 4.240000
v -2.013333 1.000000 4.240000
v -2.013333 0.620000 -4.240000
v -2.013333 1.000000 -4.240000
v 0.000000 0.620000 4.240000
v 0.000000 1.000000 4.240000
v 0.000000 0.620000 -4.240000
v 0.000000 1.000000 -4.240000
v 2.013333 0.620000 4.240000
v 2.013333 1.000000 4.240000
v 2.013333 0.620000 -4.240000
v 2.013333 1.000000 -4.240000
v 4.026667 0.620000 4.240000
v 4.026667 1.000000 4.240000
v 4.026667 0.620000 -4.240000
v 4.026667 1.000000 -4.240000
v 6.040000 0.620000 4.240000
v 6.040000 1.000000 4.240000
v 6.040000 0.620000 -4.240000
v 6.040000 1.000000 -4.240000
v -5.050000 0.500000 -2.750000
v -4.150000 0.500000 -2.750000
v -4.150000 7.200000 -2.750000
v -5.050000 7.200000 -2.750000
v -4.150000 0.500000 -3.650000
v -5.050000 0.500000 -3.650000
v -5.050000 7.200000 -3.650000
v -4.150000 7.200000 -3.650000
v 4.150000 0.500000 -2.750000
v 5.050000 0.500000 -2.750000
v 5.050000 7.200000 -2.750000
v 4.150000 7.200000 -2.750000
v 5.050000 0.500000 -3.650000
v 4.150000 0.500000 -3.650000
v 4.150000 7.200000 -3.650000
v 5.050000 7.200000 -3.650000
v -5.200000 7.200000 -2.850000
v 5.200000 7.200000 -2.850000
v 5.200000 7.900000 -2.850000
v -5.200000 7.900000 -2.850000
v 5.200000 7.200000 -3.550000
v -5.200000 7.200000 -3.550000
v -5.200000 7.900000 -3.550000
v 5.200000 7.900000 -3.550000
v -5.050000 0.500000 3.650000
v -4.150000 0.500000 3.650000
v -4.150000 7.200000 3.650000
v -5.050000 7.200000 3.650000
v -4.150000 0.500000 2.750000
v -5.050000 0.500000 2.750000
v -5.050000 7.200000 2.750000
v -4.150000 7.200000 2.750000
v 4.150000 0.500000 3.650000
v 5.050000 0.500000 3.650000
v 5.050000 7.200000 3.650000
v 4.150000 7.200000 3.650000
v 5.050000 0.500000 2.750000
v 4.150000 0.500000 2.750000
v 4.150000 7.200000 2.750000
v 5.050000 7.200000 2.750000
v -5.200000 7.200000 3.550000
v 5.200000 7.200000 3.550000
v 5.200000 7.900000 3.550000
v -5.200000 7.900000 3.550000
v 5.200000 7.200000 2.850000
v -5.200000 7.200000 2.850000
v -5.200000 7.900000 2.850000
v 5.200000 7.900000 2.850000
v -1.200000 7.900000 3.500000
v 1.200000 7.900000 3.500000
v 1.200000 8.600000 3.500000
v -1.200000 8.600000 3.500000
v 1.200000 7.900000 -3.500000
v -1.200000 7.900000 -3.500000
v -1.200000 8.600000 -3.500000
v 1.200000 8.600000 -3.500000
v -0.150000 5.200000 -0.500000
v 0.150000 5.200000 -0.500000
v 0.150000 7.900000 -0.500000
v -0.150000 7.900000 -0.500000
v 0.150000 5.200000 -0.800000
v -0.150000 5.200000 -0.800000
v -0.150000 7.900000 -0.800000
v 0.150000 7.900000 -0.800000
v -0.500000 4.700000 -0.300000
v 0.500000 4.700000 -0.300000
v 0.500000 5.200000 -0.300000
v -0.500000 5.200000 -0.300000
v 0.500000 4.700000 -1.000000
v -0.500000 4.700000 -1.000000
v -0.500000 5.200000 -1.000000
v 0.500000 5.200000 -1.000000
v -3.300000 0.600000 0.900000
v -2.300000 0.600000 0.900000
v -2.300000 1.500000 0.900000
v -3.300000 1.500000 0.900000
v -2.300000 0.600000 -0.900000
v -3.300000 0.600000 -0.900000
v -3.300000 1.500000 -0.900000
v -2.300000 1.500000 -0.900000
v -0.500000 0.600000 0.900000
v 0.500000 0.600000 0.900000
v 0.500000 1.500000 0.900000
v -0.500000 1.500000 0.900000
v 0.500000 0.600000 -0.900000
v -0.500000 0.600000 -0.900000
v -0.500000 1.500000 -0.900000
v 0.500000 1.500000 -0.900000
v 2.300000 0.600000 0.900000
v 3.300000 0.600000 0.900000
v 3.300000 1.500000 0.900000
v 2.300000 1.500000 0.900000
v 3.300000 0.600000 -0.900000
v 2.300000 0.600000 -0.900000
v 2.300000 1.500000 -0.900000
v 3.300000 1.500000 -0.900000
v -4.200000 1.500000 1.700000
v 1.400000 1.500000 1.700000
v 1.400000 4.000000 1.700000
v -4.200000 4.000000 1.700000
v 1.400000 1.500000 -1.700000
v -4.200000 1.500000 -1.700000
v -4.200000 4.000000 -1.700000
v 1.400000 4.000000 -1.700000
v -4.200000 2.600000 1.740000
v 1.400000 2.600000 1.740000
v 1.400000 3.100000 1.740000
v -4.200000 3.100000 1.740000
v 1.400000 2.600000 -1.740000
v -4.200000 2.600000 -1.740000
v -4.200000 3.100000 -1.740000
v 1.400000 3.100000 -1.740000
v 1.400000 1.700000 1.400000
v 3.000000 1.700000 1.400000
v 3.000000 3.700000 1.400000
v 1.400000 3.700000 1.400000
v 3.000000 1.700000 -1.400000
v 1.400000 1.700000 -1.400000
v 1.400000 3.700000 -1.400000
v 3.000000 3.700000 -1.400000
v 3.000000 1.900000 1.000000
v 4.100000 1.900000 1.000000
v 4.100000 3.400000 1.000000
v 3.000000 3.400000 1.000000
v 4.100000 1.900000 -1.000000
v 3.000000 1.900000 -1.000000
v 3.000000 3.400000 -1.000000
v 4.100000 3.400000 -1.000000
v -3.800000 3.500000 1.780000
v -0.600000 3.500000 1.780000
v -0.600000 3.800000 1.780000
v -3.800000 3.800000 1.780000
v -0.600000 3.500000 1.700000
v -3.800000 3.500000 1.700000
v -3.800000 3.800000 1.700000
v -0.600000 3.800000 1.700000
vn 0.000000 0.000000 1.000000
vn 0.000000 0.000000 -1.000000
vn 1.000000 0.000000 0.000000
vn 1.000000 -0.000000 0.000000
vn -1.000000 0.000000 0.000000
vn -0.000000 1.000000 0.000000
vn 0.000000 1.000000 0.000000
vn 0.000000 -1.000000 0.000000
usemtl m3d424d_t0_d2
f 1//1 2//1 3//1
f 1//1 3//1 4//1
f 5//2 6//2 7//2
f 5//2 7//2 8//2
f 2//3 5//3 8//3
f 2//4 8//4 3//4
f 6//5 1//5 4//5
f 6//5 4//5 7//5
f 4//6 3//6 8//6
f 4//7 8//7 7//7
f 6//8 5//8 2//8
f 6//8 2//8 1//8
usemtl m616973_t0_d2
f 9//1 10//1 11//1
f 9//1 11//1 12//1
f 13//2 14//2 15//2
f 13//2 15//2 16//2
f 10//3 13//3 16//3
f 10//4 16//4 11//4
f 14//5 9//5 12//5
f 14//5 12//5 15//5
f 12//6 11//6 16//6
f 12//7 16//7 15//7
f 14//8 13//8 10//8
f 14//8 10//8 9//8
usemtl m757d87_t0_d2
f 17//1 18//1 19//1
f 17//1 19//1 20//1
f 21//2 22//2 23//2
f 21//2 23//2 24//2
f 18//3 21//3 24//3
f 18//4 24//4 19//4
f 22//5 17//5 20//5
f 22//5 20//5 23//5
f 20//6 19//6 24//6
f 20//7 24//7 23//7
f 22//8 21//8 18//8
f 22//8 18//8 17//8
usemtl mcc9433_t0_d2
f 25//1 26//1 27//1
f 25//1 27//1 28//1
f 29//2 30//2 31//2
f 29//2 31//2 32//2
f 26//3 29//3 32//3
f 26//4 32//4 27//4
f 30//5 25//5 28//5
f 30//5 28//5 31//5
f 28//6 27//6 32//6
f 28//7 32//7 31//7
f 30//8 29//8 26//8
f 30//8 26//8 25//8
usemtl m3d424d_t0_d2
f 26//1 33//1 34//1
f 26//1 34//1 27//1
f 35//2 29//2 32//2
f 35//2 32//2 36//2
f 33//3 35//3 36//3
f 33//4 36//4 34//4
f 29//5 26//5 27//5
f 29//5 27//5 32//5
f 27//6 34//6 36//6
f 27//7 36//7 32//7
f 29//8 35//8 33//8
f 29//8 33//8 26//8
usemtl mcc9433_t0_d2
f 33//1 37//1 38//1
f 33//1 38//1 34//1
f 39//2 35//2 36//2
f 39//2 36//2 40//2
f 37//3 39//3 40//3
f 37//4 40//4 38//4
f 35//5 33//5 34//5
f 35//5 34//5 36//5
f 34//6 38//6 40//6
f 34//7 40//7 36//7
f 35//8 39//8 37//8
f 35//8 37//8 33//8
usemtl m3d424d_t0_d2
f 37//1 41//1 42//1
f 37//1 42//1 38//1
f 43//2 39//2 40//2
f 43//2 40//2 44//2
f 41//3 43//3 44//3
f 41//4 44//4 42//4
f 39//5 37//5 38//5
f 39//5 38//5 40//5
f 38//6 42//6 44//6
f 38//7 44//7 40//7
f 39//8 43//8 41//8
f 39//8 41//8 37//8
usemtl mcc9433_t0_d2
f 41//1 45//1 46//1
f 41//1 46//1 42//1
f 47//2 43//2 44//2
f 47//2 44//2 48//2
f 45//3 47//3 48//3
f 45//4 48//4 46//4
f 43//5 41//5 42//5
f 43//5 42//5 44//5
f 42//6 46//6 48//6
f 42//7 48//7 44//7
f 43//8 47//8 45//8
f 43//8 45//8 41//8
usemtl m3d424d_t0_d2
f 45//1 49//1 50//1
f 45//1 50//1 46//1
f 51//2 47//2 48//2
f 51//2 48//2 52//2
f 49//3 51//3 52//3
f 49//4 52//4 50//4
f 47//5 45//5 46//5
f 47//5 46//5 48//5
f 46//6 50//6 52//6
f 46//7 52//7 48//7
f 47//8 51//8 49//8
f 47//8 49//8 45//8
f 53//1 54//1 55//1
f 53//1 55//1 56//1
f 57//2 58//2 59//2
f 57//2 59//2 60//2
f 54//3 57//3 60//3
f 54//4 60//4 55//4
f 58//5 53//5 56//5
f 58//5 56//5 59//5
f 56//6 55//6 60//6
f 56//7 60//7 59//7
f 58//8 57//8 54//8
f 58//8 54//8 53//8
f 61//1 62//1 63//1
f 61//1 63//1 64//1
f 65//2 66//2 67//2
f 65//2 67//2 68//2
f 62//3 65//3 68//3
f 62//4 68//4 63//4
f 66//5 61//5 64//5
f 66//5 64//5 67//5
f 64//6 63//6 68//6
f 64//7 68//7 67//7
f 66//8 65//8 62//8
f 66//8 62//8 61//8
usemtl mcc9433_t0_d2
f 69//1 70//1 71//1
f 69//1 71//1 72//1
f 73//2 74//2 75//2
f 73//2 75//2 76//2
f 70//3 73//3 76//3
f 70//4 76//4 71//4
f 74//5 69//5 72//5
f 74//5 72//5 75//5
f 72//6 71//6 76//6
f 72//7 76//7 75//7
f 74//8 73//8 70//8
f 74//8 70//8 69//8
usemtl m3d424d_t0_d2
f 77//1 78//1 79//1
f 77//1 79//1 80//1
f 81//2 82//2 83//2
f 81//2 83//2 84//2
f 78//3 81//3 84//3
f 78//4 84//4 79//4
f 82//5 77//5 80//5
f 82//5 80//5 83//5
f 80//6 79//6 84//6
f 80//7 84//7 83//7
f 82//8 81//8 78//8
f 82//8 78//8 77//8
f 85//1 86//1 87//1
f 85//1 87//1 88//1
f 89//2 90//2 91//2
f 89//2 91//2 92//2
f 86//3 89//3 92//3
f 86//4 92//4 87//4
f 90//5 85//5 88//5
f 90//5 88//5 91//5
f 88//6 87//6 92//6
f 88//7 92//7 91//7
f 90//8 89//8 86//8
f 90//8 86//8 85//8
usemtl mcc9433_t0_d2
f 93//1 94//1 95//1
f 93//1 95//1 96//1
f 97//2 98//2 99//2
f 97//2 99//2 100//2
f 94//3 97//3 100//3
f 94//4 100//4 95//4
f 98//5 93//5 96//5
f 98//5 96//5 99//5
f 96//6 95//6 100//6
f 96//7 100//7 99//7
f 98//8 97//8 94//8
f 98//8 94//8 93//8
usemtl m2b3038_t0_d2
f 101//1 102//1 103//1
f 101//1 103//1 104//1
f 105//2 106//2 107//2
f 105//2 107//2 108//2
f 102//3 105//3 108//3
f 102//4 108//4 103//4
f 106//5 101//5 104//5
f 106//5 104//5 107//5
f 104//6 103//6 108//6
f 104//7 108//7 107//7
f 106//8 105//8 102//8
f 106//8 102//8 101//8
f 109//1 110//1 111//1
f 109//1 111//1 112//1
f 113//2 114//2 115//2
f 113//2 115//2 116//2
f 110//3 113//3 116//3
f 110//4 116//4 111//4
f 114//5 109//5 112//5
f 114//5 112//5 115//5
f 112//6 111//6 116//6
f 112//7 116//7 115//7
f 114//8 113//8 110//8
f 114//8 110//8 109//8
usemtl m616973_t0_d2
f 117//1 118//1 119//1
f 117//1 119//1 120//1
f 121//2 122//2 123//2
f 121//2 123//2 124//2
f 118//3 121//3 124//3
f 118//4 124//4 119//4
f 122//5 117//5 120//5
f 122//5 120//5 123//5
f 120//6 119//6 124//6
f 120//7 124//7 123//7
f 122//8 121//8 118//8
f 122//8 118//8 117//8
usemtl m666963_t0_d2
f 125//1 126//1 127//1
f 125//1 127//1 128//1
f 129//2 130//2 131//2
f 129//2 131//2 132//2
f 126//3 129//3 132//3
f 126//4 132//4 127//4
f 130//5 125//5 128//5
f 130//5 128//5 131//5
f 128//6 127//6 132//6
f 128//7 132//7 131//7
f 130//8 129//8 126//8
f 130//8 126//8 125//8
f 133//1 134//1 135//1
f 133//1 135//1 136//1
f 137//2 138//2 139//2
f 137//2 139//2 140//2
f 134//3 137//3 140//3
f 134//4 140//4 135//4
f 138//5 133//5 136//5
f 138//5 136//5 139//5
f 136//6 135//6 140//6
f 136//7 140//7 139//7
f 138//8 137//8 134//8
f 138//8 134//8 133//8
f 141//1 142//1 143//1
f 141//1 143//1 144//1
f 145//2 146//2 147//2
f 145//2 147//2 148//2
f 142//3 145//3 148//3
f 142//4 148//4 143//4
f 146//5 141//5 144//5
f 146//5 144//5 147//5
f 144//6 143//6 148//6
f 144//7 148//7 147//7
f 146//8 145//8 142//8
f 146//8 142//8 141//8
usemtl m757d87_t0_d2
f 149//1 150//1 151//1
f 149//1 151//1 152//1
f 153//2 154//2 155//2
f 153//2 155//2 156//2
f 150//3 153//3 156//3
f 150//4 156//4 151//4
f 154//5 149//5 152//5
f 154//5 152//5 155//5
f 152//6 151//6 156//6
f 152//7 156//7 155//7
f 154//8 153//8 150//8
f 154//8 150//8 149//8
usemtl m808080_t1_d2
f 157//1 158//1 159//1
f 157//1 159//1 160//1
f 161//2 162//2 163//2
f 161//2 163//2 164//2
f 158//3 161//3 164//3
f 158//4 164//4 159//4
f 162//5 157//5 160//5
f 162//5 160//5 163//5
f 160//6 159//6 164//6
f 160//7 164//7 163//7
f 162//8 161//8 158//8
f 162//8 158//8 157//8
usemtl m3d424d_t0_d2
f 165//1 166//1 167//1
f 165//1 167//1 168//1
f 169//2 170//2 171//2
f 169//2 171//2 172//2
f 166//3 169//3 172//3
f 166//4 172//4 167//4
f 170//5 165//5 168//5
f 170//5 168//5 171//5
f 168//6 167//6 172//6
f 168//7 172//7 171//7
f 170//8 169//8 166//8
f 170//8 166//8 165//8
f 173//1 174//1 175//1
f 173//1 175//1 176//1
f 177//2 178//2 179//2
f 177//2 179//2 180//2
f 174//3 177//3 180//3
f 174//4 180//4 175//4
f 178//5 173//5 176//5
f 178//5 176//5 179//5
f 176//6 175//6 180//6
f 176//7 180//7 179//7
f 178//8 177//8 174//8
f 178//8 174//8 173//8
usemtl mf2bf59_t0_d2
f 181//1 182//1 183//1
f 181//1 183//1 184//1
f 185//2 186//2 187//2
f 185//2 187//2 188//2
f 182//3 185//3 188//3
f 182//4 188//4 183//4
f 186//5 181//5 184//5
f 186//5 184//5 187//5
f 184//6 183//6 188//6
f 184//7 188//7 187//7
f 186//8 185//8 182//8
f 186//8 182//8 181//8
