# interceptor.obj - scaffolded once by `cargo run -p modelgen`.
# The checked-in file is the source of truth: edit it in Blender.
# Material names carry engine flags: _t1 team tint, _d0/_d1/_d2 detail channel.
mtllib interceptor.mtl
o interceptor
v -0.200000 0.350000 0.900000
v 0.200000 0.350000 0.900000
v 0.200000 0.730000 0.900000
v -0.200000 0.730000 0.900000
v 0.200000 0.350000 -1.100000
v -0.200000 0.350000 -1.100000
v -0.200000 0.730000 -1.100000
v 0.200000 0.730000 -1.100000
v -0.140000 0.390000 1.380000
v 0.140000 0.390000 1.380000
v 0.140000 0.670000 1.380000
v -0.140000 0.670000 1.380000
v 0.140000 0.390000 0.900000
v -0.140000 0.390000 0.900000
v -0.140000 0.670000 0.900000
v 0.140000 0.670000 0.900000
v -0.080000 0.430000 1.700000
v 0.080000 0.430000 1.700000
v 0.080000 0.610000 1.700000
v -0.080000 0.610000 1.700000
v 0.080000 0.430000 1.380000
v -0.080000 0.430000 1.380000
v -0.080000 0.610000 1.380000
v 0.080000 0.610000 1.380000
v -0.110000 0.730000 0.550000
v 0.110000 0.730000 0.550000
v 0.110000 0.890000 0.550000
v -0.110000 0.890000 0.550000
v 0.110000 0.730000 0.100000
v -0.110000 0.730000 0.100000
v -0.110000 0.890000 0.100000
v 0.110000 0.890000 0.100000
v -0.820000 0.470000 0.140000
v -0.200000 0.470000 0.140000
v -0.200000 0.560000 0.140000
v -0.820000 0.560000 0.140000
v -0.200000 0.470000 -0.480000
v -0.820000 0.470000 -0.480000
v -0.820000 0.560000 -0.480000
v -0.200000 0.560000 -0.480000
v -1.300000 0.470000 -0.260000
v -0.820000 0.470000 -0.260000
v -0.820000 0.560000 -0.260000
v -1.300000 0.560000 -0.260000
v -0.820000 0.470000 -0.740000
v -1.300000 0.470000 -0.740000
v -1.300000 0.560000 -0.740000
v -0.820000 0.560000 -0.740000
v 0.200000 0.470000 0.140000
v 0.820000 0.470000 0.140000
v 0.820000 0.560000 0.140000
v 0.200000 0.560000 0.140000
v 0.820000 0.470000 -0.480000
v 0.200000 0.470000 -0.480000
v 0.200000 0.560000 -0.480000
v 0.820000 0.560000 -0.480000
v 0.820000 0.470000 -0.260000
v 1.300000 0.470000 -0.260000
v 1.300000 0.560000 -0.260000
v 0.820000 0.560000 -0.260000
v 1.300000 0.470000 -0.740000
v 0.820000 0.470000 -0.740000
v 0.820000 0.560000 -0.740000
v 1.300000 0.560000 -0.740000
v -0.035000 0.730000 -0.720000
v 0.035000 0.730000 -0.720000
v 0.035000 1.200000 -0.720000
v -0.035000 1.200000 -0.720000
v 0.035000 0.730000 -1.080000
v -0.035000 0.730000 -1.080000
v -0.035000 1.200000 -1.080000
v 0.035000 1.200000 -1.080000
v -0.520000 0.650000 -0.760000
v -0.180000 0.650000 -0.760000
v -0.180000 0.720000 -0.760000
v -0.520000 0.720000 -0.760000
v -0.180000 0.650000 -1.060000
v -0.520000 0.650000 -1.060000
v -0.520000 0.720000 -1.060000
v -0.180000 0.720000 -1.060000
v 0.180000 0.650000 -0.760000
v 0.520000 0.650000 -0.760000
v 0.520000 0.720000 -0.760000
v 0.180000 0.720000 -0.760000
v 0.520000 0.650000 -1.060000
v 0.180000 0.650000 -1.060000
v 0.180000 0.720000 -1.060000
v 0.520000 0.720000 -1.060000
v 0.110000 0.540000 -1.260000
v 0.077782 0.617782 -1.260000
v 0.077782 0.617782 -1.100000
v 0.110000 0.540000 -1.100000
v -0.000000 0.650000 -1.260000
v -0.000000 0.650000 -1.100000
v -0.077782 0.617782 -1.260000
v -0.077782 0.617782 -1.100000
v -0.110000 0.540000 -1.260000
v -0.110000 0.540000 -1.100000
v -0.077782 0.462218 -1.260000
v -0.077782 0.462218 -1.100000
v 0.000000 0.430000 -1.260000
v 0.000000 0.430000 -1.100000
v 0.077782 0.462218 -1.260000
v 0.077782 0.462218 -1.100000
v -0.080000 0.470000 -1.160000
v 0.080000 0.470000 -1.160000
v 0.080000 0.610000 -1.160000
v -0.080000 0.610000 -1.160000
v 0.080000 0.470000 -1.240000
v -0.080000 0.470000 -1.240000
v -0.080000 0.610000 -1.240000
v 0.080000 0.610000 -1.240000
v -0.300000 0.000000 0.300000
v -0.220000 0.000000 0.300000
v -0.220000 0.370000 0.300000
v -0.300000 0.370000 0.300000
v -0.220000 0.000000 -0.500000
v -0.300000 0.000000 -0.500000
v -0.300000 0.370000 -0.500000
v -0.220000 0.370000 -0.500000
v 0.220000 0.000000 0.300000
v 0.300000 0.000000 0.300000
v 0.300000 0.370000 0.300000
v 0.220000 0.370000 0.300000
v 0.300000 0.000000 -0.500000
v 0.220000 0.000000 -0.500000
v 0.220000 0.370000 -0.500000
v 0.300000 0.370000 -0.500000
vn 0.000000 0.000000 1.000000
vn 0.000000 0.000000 -1.000000
vn 1.000000 0.000000 0.000000
vn 1.000000 -0.000000 0.000000
vn -1.000000 0.000000 0.000000
vn -0.000000 1.000000 0.000000
vn 0.000000 1.000000 0.000000
vn 0.000000 -1.000000 0.000000
vn 0.923880 0.382683 0.000000
vn 0.923880 0.382683 -0.000000
vn 0.382684 0.923879 0.000000
vn 0.382684 0.923879 -0.000000
vn -0.382684 0.923879 0.000000
vn -0.923880 0.382683 0.000000
vn -0.923880 -0.382684 0.000000
vn -0.382683 -0.923880 0.000000
vn 0.382684 -0.923879 0.000000
vn 0.923880 -0.382683 0.000000
usemtl m757d87_t0_d2
f 1//1 2//1 3//1
f 1//1 3//1 4//1
f 5//2 6//2 7//2
f 5//2 7//2 8//2
f 2//3 5//3 8//3
f 2//4 8//4 3//4
f 6//5 1//5 4//5
f 6//5 4//5 7//5
f 4//6 3//6 8//6
f 4//7 8//7 7//7
f 6//8 5//8 2//8
f 6//8 2//8 1//8
usemtl m949ca6_t0_d2
f 9//1 10//1 11//1
f 9//1 11//1 12//1
f 13//2 14//2 15//2
f 13//2 15//2 16//2
f 10//3 13//3 16//3
f 10//4 16//4 11//4
f 14//5 9//5 12//5
f 14//5 12//5 15//5
f 12//6 11//6 16//6
f 12//7 16//7 15//7
f 14//8 13//8 10//8
f 14//8 10//8 9//8
f 17//1 18//1 19//1
f 17//1 19//1 20//1
f 21//2 22//2 23//2
f 21//2 23//2 24//2
f 18//3 21//3 24//3
f 18//4 24//4 19//4
f 22//5 17//5 20//5
f 22//5 20//5 23//5
f 20//6 19//6 24//6
f 20//7 24//7 23//7
f 22//8 21//8 18//8
f 22//8 18//8 17//8
usemtl m808080_t1_d2
f 25//1 26//1 27//1
f 25//1 27//1 28//1
f 29//2 30//2 31//2
f 29//2 31//2 32//2
f 26//3 29//3 32//3
f 26//4 32//4 27//4
f 30//5 25//5 28//5
f 30//5 28//5 31//5
f 28//6 27//6 32//6
f 28//7 32//7 31//7
f 30//8 29//8 26//8
f 30//8 26//8 25//8
usemtl m757d87_t0_d2
f 33//1 34//1 35//1
f 33//1 35//1 36//1
f 37//2 38//2 39//2
f 37//2 39//2 40//2
f 34//3 37//3 40//3
f 34//4 40//4 35//4
f 38//5 33//5 36//5
f 38//5 36//5 39//5
f 36//6 35//6 40//6
f 36//7 40//7 39//7
f 38//8 37//8 34//8
f 38//8 34//8 33//8
usemtl m949ca6_t0_d2
f 41//1 42//1 43//1
f 41//1 43//1 44//1
f 45//2 46//2 47//2
f 45//2 47//2 48//2
f 42//3 45//3 48//3
f 42//4 48//4 43//4
f 46//5 41//5 44//5
f 46//5 44//5 47//5
f 44//6 43//6 48//6
f 44//7 48//7 47//7
f 46//8 45//8 42//8
f 46//8 42//8 41//8
usemtl m757d87_t0_d2
f 49//1 50//1 51//1
f 49//1 51//1 52//1
f 53//2 54//2 55//2
f 53//2 55//2 56//2
f 50//3 53//3 56//3
f 50//4 56//4 51//4
f 54//5 49//5 52//5
f 54//5 52//5 55//5
f 52//6 51//6 56//6
f 52//7 56//7 55//7
f 54//8 53//8 50//8
f 54//8 50//8 49//8
usemtl m949ca6_t0_d2
f 57//1 58//1 59//1
f 57//1 59//1 60//1
f 61//2 62//2 63//2
f 61//2 63//2 64//2
f 58//3 61//3 64//3
f 58//4 64//4 59//4
f 62//5 57//5 60//5
f 62//5 60//5 63//5
f 60//6 59//6 64//6
f 60//7 64//7 63//7
f 62//8 61//8 58//8
f 62//8 58//8 57//8
f 65//1 66//1 67//1
f 65//1 67//1 68//1
f 69//2 70//2 71//2
f 69//2 71//2 72//2
f 66//3 69//3 72//3
f 66//4 72//4 67//4
f 70//5 65//5 68//5
f 70//5 68//5 71//5
f 68//6 67//6 72//6
f 68//7 72//7 71//7
f 70//8 69//8 66//8
f 70//8 66//8 65//8
f 73//1 74//1 75//1
f 73//1 75//1 76//1
f 77//2 78//2 79//2
f 77//2 79//2 80//2
f 74//3 77//3 80//3
f 74//4 80//4 75//4
f 78//5 73//5 76//5
f 78//5 76//5 79//5
f 76//6 75//6 80//6
f 76//7 80//7 79//7
f 78//8 77//8 74//8
f 78//8 74//8 73//8
f 81//1 82//1 83//1
f 81//1 83//1 84//1
f 85//2 86//2 87//2
f 85//2 87//2 88//2
f 82//3 85//3 88//3
f 82//4 88//4 83//4
f 86//5 81//5 84//5
f 86//5 84//5 87//5
f 84//6 83//6 88//6
f 84//7 88//7 87//7
f 86//8 85//8 82//8
f 86//8 82//8 81//8
usemtl m2b3038_t0_d2
f 89//9 90//9 91//9
f 89//10 91//10 92//10
f 90//11 93//11 94//11
f 90//12 94//12 91//12
f 93//13 95//13 96//13
f 93//13 96//13 94//13
f 95//14 97//14 98//14
f 95//14 98//14 96//14
f 97//15 99//15 100//15
f 97//15 100//15 98//15
f 99//16 101//16 102//16
f 99//16 102//16 100//16
f 101//17 103//17 104//17
f 101//17 104//17 102//17
f 103//18 89//18 92//18
f 103//18 92//18 104//18
usemtl mf2bf59_t0_d2
f 105//1 106//1 107//1
f 105//1 107//1 108//1
f 109//2 110//2 111//2
f 109//2 111//2 112//2
f 106//3 109//3 112//3
f 106//4 112//4 107//4
f 110//5 105//5 108//5
f 110//5 108//5 111//5
f 108//6 107//6 112//6
f 108//7 112//7 111//7
f 110//8 109//8 106//8
f 110//8 106//8 105//8
usemtl m3d424d_t0_d2
f 113//1 114//1 115//1
f 113//1 115//1 116//1
f 117//2 118//2 119//2
f 117//2 119//2 120//2
f 114//3 117//3 120//3
f 114//4 120//4 115//4
f 118//5 113//5 116//5
f 118//5 116//5 119//5
f 116//6 115//6 120//6
f 116//7 120//7 119//7
f 118//8 117//8 114//8
f 118//8 114//8 113//8
f 121//1 122//1 123//1
f 121//1 123//1 124//1
f 125//2 126//2 127//2
f 125//2 127//2 128//2
f 122//3 125//3 128//3
f 122//4 128//4 123//4
f 126//5 121//5 124//5
f 126//5 124//5 127//5
f 124//6 123//6 128//6
f 124//7 128//7 127//7
f 126//8 125//8 122//8
f 126//8 122//8 121//8
