# wrecker-attack-3.obj - scaffolded once by `cargo run -p modelgen`.
# The checked-in file is the source of truth: edit it in Blender.
# Material names carry engine flags: _t1 team tint, _d0/_d1/_d2 detail channel.
mtllib wrecker.mtl
o wrecker-attack-3
v -0.500000 0.427500 0.160000
v -0.220000 0.427500 0.160000
v -0.220000 0.950000 0.179593
v -0.500000 0.950000 0.179593
v -0.220000 0.427500 -0.200000
v -0.500000 0.427500 -0.200000
v -0.500000 0.950000 -0.180407
v -0.220000 0.950000 -0.180407
v -0.472000 0.100000 0.180000
v -0.248000 0.100000 0.180000
v -0.248000 0.522500 0.180000
v -0.472000 0.522500 0.180000
v -0.248000 0.100000 -0.120000
v -0.472000 0.100000 -0.120000
v -0.472000 0.522500 -0.120000
v -0.248000 0.522500 -0.120000
v -0.500000 0.000000 0.300000
v -0.220000 0.000000 0.300000
v -0.220000 0.120000 0.300000
v -0.500000 0.120000 0.300000
v -0.220000 0.000000 -0.180000
v -0.500000 0.000000 -0.180000
v -0.500000 0.120000 -0.180000
v -0.220000 0.120000 -0.180000
v -0.472000 0.000000 0.380000
v -0.248000 0.000000 0.380000
v -0.248000 0.090000 0.380000
v -0.472000 0.090000 0.380000
v -0.248000 0.000000 0.280000
v -0.472000 0.000000 0.280000
v -0.472000 0.090000 0.280000
v -0.248000 0.090000 0.280000
v 0.220000 0.427500 0.160000
v 0.500000 0.427500 0.160000
v 0.500000 0.950000 0.179593
v 0.220000 0.950000 0.179593
v 0.500000 0.427500 -0.200000
v 0.220000 0.427500 -0.200000
v 0.220000 0.950000 -0.180407
v 0.500000 0.950000 -0.180407
v 0.248000 0.100000 0.180000
v 0.472000 0.100000 0.180000
v 0.472000 0.522500 0.180000
v 0.248000 0.522500 0.180000
v 0.472000 0.100000 -0.120000
v 0.248000 0.100000 -0.120000
v 0.248000 0.522500 -0.120000
v 0.472000 0.522500 -0.120000
v 0.220000 0.000000 0.300000
v 0.500000 0.000000 0.300000
v 0.500000 0.120000 0.300000
v 0.220000 0.120000 0.300000
v 0.500000 0.000000 -0.180000
v 0.220000 0.000000 -0.180000
v 0.220000 0.120000 -0.180000
v 0.500000 0.120000 -0.180000
v 0.248000 0.000000 0.380000
v 0.472000 0.000000 0.380000
v 0.472000 0.090000 0.380000
v 0.248000 0.090000 0.380000
v 0.472000 0.000000 0.280000
v 0.248000 0.000000 0.280000
v 0.248000 0.090000 0.280000
v 0.472000 0.090000 0.280000
v -0.440000 0.950000 0.239593
v 0.440000 0.950000 0.239593
v 0.440000 1.360000 0.400254
v -0.440000 1.360000 0.400254
v 0.440000 0.950000 -0.360407
v -0.440000 0.950000 -0.360407
v -0.440000 1.360000 -0.199746
v 0.440000 1.360000 -0.199746
v -0.500000 1.360000 0.700254
v 0.500000 1.360000 0.700254
v 0.500000 1.800000 0.755114
v -0.500000 1.800000 0.755114
v 0.500000 1.360000 -0.019746
v -0.500000 1.360000 -0.019746
v -0.500000 1.800000 0.035114
v 0.500000 1.800000 0.035114
v -0.340000 1.800000 0.675114
v 0.340000 1.800000 0.675114
v 0.340000 1.920000 0.675114
v -0.340000 1.920000 0.675114
v 0.340000 1.800000 0.115114
v -0.340000 1.800000 0.115114
v -0.340000 1.920000 0.115114
v 0.340000 1.920000 0.115114
v -0.500000 1.480000 0.787277
v 0.500000 1.480000 0.787277
v 0.500000 1.600000 0.795114
v -0.500000 1.600000 0.795114
v 0.500000 1.480000 0.747277
v -0.500000 1.480000 0.747277
v -0.500000 1.600000 0.755114
v 0.500000 1.600000 0.755114
v -0.140000 1.400000 0.875928
v 0.140000 1.400000 0.875928
v 0.140000 1.600000 0.915114
v -0.140000 1.600000 0.915114
v 0.140000 1.400000 0.715928
v -0.140000 1.400000 0.715928
v -0.140000 1.600000 0.755114
v 0.140000 1.600000 0.755114
v -0.100000 1.450000 0.935521
v 0.100000 1.450000 0.935521
v 0.100000 1.550000 0.955114
v -0.100000 1.550000 0.955114
v 0.100000 1.450000 0.895521
v -0.100000 1.450000 0.895521
v -0.100000 1.550000 0.915114
v 0.100000 1.550000 0.915114
v -0.820000 1.300000 0.416743
v -0.500000 1.300000 0.416743
v -0.500000 1.700000 0.495114
v -0.820000 1.700000 0.495114
v -0.500000 1.300000 0.036743
v -0.820000 1.300000 0.036743
v -0.820000 1.700000 0.115114
v -0.500000 1.700000 0.115114
v -0.800000 0.420000 0.520000
v -0.520000 0.420000 0.520000
v -0.520000 1.360000 0.700254
v -0.800000 1.360000 0.700254
v -0.520000 0.420000 0.060000
v -0.800000 0.420000 0.060000
v -0.800000 1.360000 0.240254
v -0.520000 1.360000 0.240254
v -0.670000 0.460000 0.560000
v -0.720000 0.460000 0.610000
v -0.720000 0.100000 0.560000
v -0.770000 0.460000 0.560000
v -0.720000 0.460000 0.510000
v -0.570000 0.460000 0.560000
v -0.620000 0.460000 0.610000
v -0.620000 0.100000 0.560000
v -0.620000 0.460000 0.510000
v -0.470000 0.460000 0.560000
v -0.520000 0.460000 0.610000
v -0.520000 0.100000 0.560000
v -0.570000 0.460000 0.560000
v -0.520000 0.460000 0.510000
v 0.500000 1.300000 0.416743
v 0.820000 1.300000 0.416743
v 0.820000 1.700000 0.495114
v 0.500000 1.700000 0.495114
v 0.820000 1.300000 0.036743
v 0.500000 1.300000 0.036743
v 0.500000 1.700000 0.115114
v 0.820000 1.700000 0.115114
v 0.520000 0.420000 0.520000
v 0.800000 0.420000 0.520000
v 0.800000 1.360000 0.700254
v 0.520000 1.360000 0.700254
v 0.800000 0.420000 0.060000
v 0.520000 0.420000 0.060000
v 0.520000 1.360000 0.240254
v 0.800000 1.360000 0.240254
v 0.650000 0.460000 0.560000
v 0.600000 0.460000 0.610000
v 0.600000 0.100000 0.560000
v 0.550000 0.460000 0.560000
v 0.600000 0.460000 0.510000
v 0.750000 0.460000 0.560000
v 0.700000 0.460000 0.610000
v 0.700000 0.100000 0.560000
v 0.700000 0.460000 0.510000
v 0.850000 0.460000 0.560000
v 0.800000 0.460000 0.610000
v 0.800000 0.100000 0.560000
v 0.750000 0.460000 0.560000
v 0.800000 0.460000 0.510000
v 0.580000 0.500000 0.860000
v 0.740000 0.500000 0.860000
v 0.740000 0.620000 0.860000
v 0.580000 0.620000 0.860000
v 0.740000 0.500000 0.520000
v 0.580000 0.500000 0.520000
v 0.580000 0.620000 0.520000
v 0.740000 0.620000 0.520000
vn 0.000000 0.000000 1.000000
vn 0.000000 0.000000 -1.000000
vn 1.000000 0.000000 0.000000
vn 1.000000 -0.000000 0.000000
vn -1.000000 0.000000 0.000000
vn -0.000000 1.000000 0.000000
vn 0.000000 1.000000 0.000000
vn 0.000000 -1.000000 0.000000
vn 0.703721 -0.097739 0.703721
vn -0.703721 -0.097739 0.703721
vn -0.703721 -0.097739 -0.703721
vn 0.703721 -0.097739 -0.703721
usemtl m616973_t0_d2
f 1//1 2//1 3//1
f 1//1 3//1 4//1
f 5//2 6//2 7//2
f 5//2 7//2 8//2
f 2//3 5//3 8//3
f 2//4 8//4 3//4
f 6//5 1//5 4//5
f 6//5 4//5 7//5
f 4//6 3//6 8//6
f 4//7 8//7 7//7
f 6//8 5//8 2//8
f 6//8 2//8 1//8
usemtl m3d424d_t0_d2
f 9//1 10//1 11//1
f 9//1 11//1 12//1
f 13//2 14//2 15//2
f 13//2 15//2 16//2
f 10//3 13//3 16//3
f 10//4 16//4 11//4
f 14//5 9//5 12//5
f 14//5 12//5 15//5
f 12//6 11//6 16//6
f 12//7 16//7 15//7
f 14//8 13//8 10//8
f 14//8 10//8 9//8
usemtl m2b3038_t0_d2
f 17//1 18//1 19//1
f 17//1 19//1 20//1
f 21//2 22//2 23//2
f 21//2 23//2 24//2
f 18//3 21//3 24//3
f 18//4 24//4 19//4
f 22//5 17//5 20//5
f 22//5 20//5 23//5
f 20//6 19//6 24//6
f 20//7 24//7 23//7
f 22//8 21//8 18//8
f 22//8 18//8 17//8
usemtl m949ca6_t0_d2
f 25//1 26//1 27//1
f 25//1 27//1 28//1
f 29//2 30//2 31//2
f 29//2 31//2 32//2
f 26//3 29//3 32//3
f 26//4 32//4 27//4
f 30//5 25//5 28//5
f 30//5 28//5 31//5
f 28//6 27//6 32//6
f 28//7 32//7 31//7
f 30//8 29//8 26//8
f 30//8 26//8 25//8
usemtl m616973_t0_d2
f 33//1 34//1 35//1
f 33//1 35//1 36//1
f 37//2 38//2 39//2
f 37//2 39//2 40//2
f 34//3 37//3 40//3
f 34//4 40//4 35//4
f 38//5 33//5 36//5
f 38//5 36//5 39//5
f 36//6 35//6 40//6
f 36//7 40//7 39//7
f 38//8 37//8 34//8
f 38//8 34//8 33//8
usemtl m3d424d_t0_d2
f 41//1 42//1 43//1
f 41//1 43//1 44//1
f 45//2 46//2 47//2
f 45//2 47//2 48//2
f 42//3 45//3 48//3
f 42//4 48//4 43//4
f 46//5 41//5 44//5
f 46//5 44//5 47//5
f 44//6 43//6 48//6
f 44//7 48//7 47//7
f 46//8 45//8 42//8
f 46//8 42//8 41//8
usemtl m2b3038_t0_d2
f 49//1 50//1 51//1
f 49//1 51//1 52//1
f 53//2 54//2 55//2
f 53//2 55//2 56//2
f 50//3 53//3 56//3
f 50//4 56//4 51//4
f 54//5 49//5 52//5
f 54//5 52//5 55//5
f 52//6 51//6 56//6
f 52//7 56//7 55//7
f 54//8 53//8 50//8
f 54//8 50//8 49//8
usemtl m949ca6_t0_d2
f 57//1 58//1 59//1
f 57//1 59//1 60//1
f 61//2 62//2 63//2
f 61//2 63//2 64//2
f 58//3 61//3 64//3
f 58//4 64//4 59//4
f 62//5 57//5 60//5
f 62//5 60//5 63//5
f 60//6 59//6 64//6
f 60//7 64//7 63//7
f 62//8 61//8 58//8
f 62//8 58//8 57//8
usemtl m757d87_t0_d2
f 65//1 66//1 67//1
f 65//1 67//1 68//1
f 69//2 70//2 71//2
f 69//2 71//2 72//2
f 66//3 69//3 72//3
f 66//4 72//4 67//4
f 70//5 65//5 68//5
f 70//5 68//5 71//5
f 68//6 67//6 72//6
f 68//7 72//7 71//7
f 70//8 69//8 66//8
f 70//8 66//8 65//8
usemtl m949ca6_t0_d2
f 73//1 74//1 75//1
f 73//1 75//1 76//1
f 77//2 78//2 79//2
f 77//2 79//2 80//2
f 74//3 77//3 80//3
f 74//4 80//4 75//4
f 78//5 73//5 76//5
f 78//5 76//5 79//5
f 76//6 75//6 80//6
f 76//7 80//7 79//7
f 78//8 77//8 74//8
f 78//8 74//8 73//8
usemtl m808080_t1_d2
f 81//1 82//1 83//1
f 81//1 83//1 84//1
f 85//2 86//2 87//2
f 85//2 87//2 88//2
f 82//3 85//3 88//3
f 82//4 88//4 83//4
f 86//5 81//5 84//5
f 86//5 84//5 87//5
f 84//6 83//6 88//6
f 84//7 88//7 87//7
f 86//8 85//8 82//8
f 86//8 82//8 81//8
usemtl mcc9433_t0_d2
f 89//1 90//1 91//1
f 89//1 91//1 92//1
f 93//2 94//2 95//2
f 93//2 95//2 96//2
f 90//3 93//3 96//3
f 90//4 96//4 91//4
f 94//5 89//5 92//5
f 94//5 92//5 95//5
f 92//6 91//6 96//6
f 92//7 96//7 95//7
f 94//8 93//8 90//8
f 94//8 90//8 89//8
usemtl m3d424d_t0_d2
f 97//1 98//1 99//1
f 97//1 99//1 100//1
f 101//2 102//2 103//2
f 101//2 103//2 104//2
f 98//3 101//3 104//3
f 98//4 104//4 99//4
f 102//5 97//5 100//5
f 102//5 100//5 103//5
f 100//6 99//6 104//6
f 100//7 104//7 103//7
f 102//8 101//8 98//8
f 102//8 98//8 97//8
usemtl meb4d38_t0_d2
f 105//1 106//1 107//1
f 105//1 107//1 108//1
f 109//2 110//2 111//2
f 109//2 111//2 112//2
f 106//3 109//3 112//3
f 106//4 112//4 107//4
f 110//5 105//5 108//5
f 110//5 108//5 111//5
f 108//6 107//6 112//6
f 108//7 112//7 111//7
f 110//8 109//8 106//8
f 110//8 106//8 105//8
usemtl m616973_t0_d2
f 113//1 114//1 115//1
f 113//1 115//1 116//1
f 117//2 118//2 119//2
f 117//2 119//2 120//2
f 114//3 117//3 120//3
f 114//4 120//4 115//4
f 118//5 113//5 116//5
f 118//5 116//5 119//5
f 116//6 115//6 120//6
f 116//7 120//7 119//7
f 118//8 117//8 114//8
f 118//8 114//8 113//8
usemtl m3d424d_t0_d2
f 121//1 122//1 123//1
f 121//1 123//1 124//1
f 125//2 126//2 127//2
f 125//2 127//2 128//2
f 122//3 125//3 128//3
f 122//4 128//4 123//4
f 126//5 121//5 124//5
f 126//5 124//5 127//5
f 124//6 123//6 128//6
f 124//7 128//7 127//7
f 126//8 125//8 122//8
f 126//8 122//8 121//8
usemtl m949ca6_t0_d2
f 129//9 130//9 131//9
f 130//10 132//10 131//10
f 132//11 133//11 131//11
f 133//12 129//12 131//12
f 134//9 135//9 136//9
f 135//10 129//10 136//10
f 129//11 137//11 136//11
f 137//12 134//12 136//12
f 138//9 139//9 140//9
f 139//10 141//10 140//10
f 141//11 142//11 140//11
f 142//12 138//12 140//12
usemtl m616973_t0_d2
f 143//1 144//1 145//1
f 143//1 145//1 146//1
f 147//2 148//2 149//2
f 147//2 149//2 150//2
f 144//3 147//3 150//3
f 144//4 150//4 145//4
f 148//5 143//5 146//5
f 148//5 146//5 149//5
f 146//6 145//6 150//6
f 146//7 150//7 149//7
f 148//8 147//8 144//8
f 148//8 144//8 143//8
usemtl m3d424d_t0_d2
f 151//1 152//1 153//1
f 151//1 153//1 154//1
f 155//2 156//2 157//2
f 155//2 157//2 158//2
f 152//3 155//3 158//3
f 152//4 158//4 153//4
f 156//5 151//5 154//5
f 156//5 154//5 157//5
f 154//6 153//6 158//6
f 154//7 158//7 157//7
f 156//8 155//8 152//8
f 156//8 152//8 151//8
usemtl m949ca6_t0_d2
f 159//9 160//9 161//9
f 160//10 162//10 161//10
f 162//11 163//11 161//11
f 163//12 159//12 161//12
f 164//9 165//9 166//9
f 165//10 159//10 166//10
f 159//11 167//11 166//11
f 167//12 164//12 166//12
f 168//9 169//9 170//9
f 169//10 171//10 170//10
f 171//11 172//11 170//11
f 172//12 168//12 170//12
usemtl mf2bf59_t0_d2
f 173//1 174//1 175//1
f 173//1 175//1 176//1
f 177//2 178//2 179//2
f 177//2 179//2 180//2
f 174//3 177//3 180//3
f 174//4 180//4 175//4
f 178//5 173//5 176//5
f 178//5 176//5 179//5
f 176//6 175//6 180//6
f 176//7 180//7 179//7
f 178//8 177//8 174//8
f 178//8 174//8 173//8
