<svg xmlns="http://www.w3.org/2000/svg" viewBox="0 0 480 480" width="480" height="480" font-family="'Eurostile','Michroma','Bahnschrift','Arial Narrow',sans-serif">
<defs>
<radialGradient id="space" cx="50%" cy="36%" r="80%"><stop offset="0%" stop-color="#241d52"/><stop offset="48%" stop-color="#16113b"/><stop offset="100%" stop-color="#070518"/></radialGradient>
<filter id="glow" x="-80%" y="-80%" width="260%" height="260%"><feGaussianBlur stdDeviation="3.2"/></filter>
<filter id="softglow" x="-120%" y="-120%" width="340%" height="340%"><feGaussianBlur stdDeviation="7"/></filter>
<g id="spark"><path d="M0,-8 L1.7,-1.7 L8,0 L1.7,1.7 L0,8 L-1.7,1.7 L-8,0 L-1.7,-1.7 Z" fill="currentColor"/></g>
<clipPath id="scene"><circle cx="240" cy="240" r="188"/></clipPath>
<path id="arcTop" d="M 39,240 A 201,201 0 0 1 441,240"/>
<path id="arcBottom" d="M 23,240 A 217,217 0 0 0 457,240"/>
<mask id="moonmask"><rect x="0" y="0" width="480" height="480" fill="#fff"/><circle cx="338" cy="138" r="34" fill="#000"/></mask>
</defs>
<circle cx="240" cy="240" r="232" fill="#0c0a24" stroke="#e9cd84" stroke-width="3"/>
<circle cx="240" cy="240" r="227" fill="none" stroke="#b69cff" stroke-width="1" opacity="0.45"/>
<g clip-path="url(#scene)">
<circle cx="240" cy="240" r="188" fill="url(#space)"/>
<g fill="#ffffff"><circle cx="300" cy="92" r="1.4" opacity="0.8"/><circle cx="352" cy="150" r="1" opacity="0.6"/><circle cx="392" cy="210" r="1.2" opacity="0.7"/><circle cx="150" cy="170" r="1" opacity="0.6"/><circle cx="92" cy="210" r="1.1" opacity="0.6"/><circle cx="210" cy="118" r="0.9" opacity="0.6"/><circle cx="408" cy="270" r="1" opacity="0.5"/><circle cx="86" cy="280" r="0.9" opacity="0.5"/></g>

<circle cx="320" cy="146" r="34" fill="#e7ebff" opacity="0.9" mask="url(#moonmask)"/>
<path d="M240,278 L360,330 L322,338 L302,329 L282,340 L262,330 L240,344 L218,330 L198,340 L178,329 L158,338 L120,330 Z" fill="#0b0c14"/>
<path d="M240,278 L360,330" stroke="#aeb9d6" stroke-width="1.6" opacity="0.7"/>
<path d="M240,278 L120,330" stroke="#aeb9d6" stroke-width="1.6" opacity="0.7"/>
<ellipse cx="240" cy="300" rx="44" ry="17" fill="#b69cff" opacity="0.13" filter="url(#softglow)"/>
<path d="M214,238 C188,234 172,246 156,242 C172,250 188,250 214,250 Z" fill="#6e2733"/>
<path d="M212,266 C214,249 266,249 268,266 L274,292 L206,292 Z" fill="#11111c"/>
<path d="M214,232 L222,198 L240,222 L258,198 L266,232 C272,250 264,267 240,267 C216,267 208,250 214,232 Z" fill="#11111c"/>
<rect x="208" y="235" width="64" height="14" rx="3" fill="#050509"/>
<path d="M222,245 L235,241 L235,247 Z" fill="#b6ff5a" filter="url(#glow)"/>
<path d="M258,245 L245,241 L245,247 Z" fill="#b6ff5a" filter="url(#glow)"/>
<g fill="none" stroke="#cfd6ff" stroke-width="1.8" opacity="0.7" stroke-linecap="round">
  <path d="M222,198 L240,222 L258,198"/>
  <path d="M214,232 C214,250 224,262 240,265"/>
</g>
<use href="#spark" transform="translate(150,196) scale(0.42)" color="#cfd2ff" opacity="0.85"/>
<use href="#spark" transform="translate(112,250) scale(0.36)" color="#cfd2ff" opacity="0.7"/>

</g>
<circle cx="240" cy="240" r="189" fill="none" stroke="#e9cd84" stroke-width="2.5"/>
<circle cx="240" cy="240" r="184" fill="none" stroke="#b69cff" stroke-width="1" opacity="0.4"/>
<text fill="#dfe0ff" font-size="27" font-weight="700" letter-spacing="4"><textPath href="#arcTop" startOffset="50%" text-anchor="middle">NINEFOLD</textPath></text>
<text fill="#cfd2ff" font-size="11" font-weight="600" letter-spacing="2"><textPath href="#arcBottom" startOffset="50%" text-anchor="middle">MADE TO SERVE, BORN TO RULE</textPath></text>
<use href="#spark" transform="translate(36,240) scale(0.7) rotate(45)" color="#b69cff"/>
<use href="#spark" transform="translate(444,240) scale(0.7) rotate(45)" color="#b69cff"/>
</svg>