<svg xmlns="http://www.w3.org/2000/svg" viewBox="0 0 480 480" width="480" height="480" font-family="'Eurostile','Michroma','Bahnschrift','Arial Narrow',sans-serif">
<defs>
<radialGradient id="space" cx="50%" cy="36%" r="80%"><stop offset="0%" stop-color="#241d52"/><stop offset="48%" stop-color="#16113b"/><stop offset="100%" stop-color="#070518"/></radialGradient>
<filter id="glow" x="-80%" y="-80%" width="260%" height="260%"><feGaussianBlur stdDeviation="3.2"/></filter>
<filter id="softglow" x="-120%" y="-120%" width="340%" height="340%"><feGaussianBlur stdDeviation="7"/></filter>
<g id="spark"><path d="M0,-8 L1.7,-1.7 L8,0 L1.7,1.7 L0,8 L-1.7,1.7 L-8,0 L-1.7,-1.7 Z" fill="currentColor"/></g>
<clipPath id="scene"><circle cx="240" cy="240" r="188"/></clipPath>
<path id="arcTop" d="M 39,240 A 201,201 0 0 1 441,240"/>
<path id="arcBottom" d="M 23,240 A 217,217 0 0 0 457,240"/>
<clipPath id="lower"><rect x="0" y="258" width="480" height="480"/></clipPath>
</defs>
<circle cx="240" cy="240" r="232" fill="#0c0a24" stroke="#e9cd84" stroke-width="3"/>
<circle cx="240" cy="240" r="227" fill="none" stroke="#b69cff" stroke-width="1" opacity="0.45"/>
<g clip-path="url(#scene)">
<circle cx="240" cy="240" r="188" fill="url(#space)"/>
<g fill="#ffffff"><circle cx="300" cy="92" r="1.4" opacity="0.8"/><circle cx="352" cy="150" r="1" opacity="0.6"/><circle cx="392" cy="210" r="1.2" opacity="0.7"/><circle cx="150" cy="170" r="1" opacity="0.6"/><circle cx="92" cy="210" r="1.1" opacity="0.6"/><circle cx="210" cy="118" r="0.9" opacity="0.6"/><circle cx="408" cy="270" r="1" opacity="0.5"/><circle cx="86" cy="280" r="0.9" opacity="0.5"/></g>
<path d="M243.8,77.7 A8.6,8.6 0 1 0 243.8,62.3 A7.7,7.7 0 0 1 243.8,77.7 Z" fill="#e9e6f8" stroke="#bcb5e2" stroke-width="1.0" stroke-linejoin="round"/><path d="M353.1,117.5 A8.6,8.6 0 1 0 353.1,102.1 A7.7,7.7 0 0 1 353.1,117.5 Z" fill="#e9e6f8" stroke="#bcb5e2" stroke-width="1.0" stroke-linejoin="round"/><path d="M411.2,218.2 A8.6,8.6 0 1 0 411.2,202.8 A7.7,7.7 0 0 1 411.2,218.2 Z" fill="#e9e6f8" stroke="#bcb5e2" stroke-width="1.0" stroke-linejoin="round"/><path d="M391.1,332.7 A8.6,8.6 0 1 0 391.1,317.3 A7.7,7.7 0 0 1 391.1,332.7 Z" fill="#e9e6f8" stroke="#bcb5e2" stroke-width="1.0" stroke-linejoin="round"/><path d="M302.0,407.4 A8.6,8.6 0 1 0 302.0,392.0 A7.7,7.7 0 0 1 302.0,407.4 Z" fill="#e9e6f8" stroke="#bcb5e2" stroke-width="1.0" stroke-linejoin="round"/><path d="M185.7,407.4 A8.6,8.6 0 1 0 185.7,392.0 A7.7,7.7 0 0 1 185.7,407.4 Z" fill="#e9e6f8" stroke="#bcb5e2" stroke-width="1.0" stroke-linejoin="round"/><path d="M96.6,332.7 A8.6,8.6 0 1 0 96.6,317.3 A7.7,7.7 0 0 1 96.6,332.7 Z" fill="#e9e6f8" stroke="#bcb5e2" stroke-width="1.0" stroke-linejoin="round"/><path d="M76.4,218.2 A8.6,8.6 0 1 0 76.4,202.8 A7.7,7.7 0 0 1 76.4,218.2 Z" fill="#e9e6f8" stroke="#bcb5e2" stroke-width="1.0" stroke-linejoin="round"/><path d="M134.6,117.5 A8.6,8.6 0 1 0 134.6,102.1 A7.7,7.7 0 0 1 134.6,117.5 Z" fill="#e9e6f8" stroke="#bcb5e2" stroke-width="1.0" stroke-linejoin="round"/><g><path d="M226,306 L221,352 L233,334 L240,356 L247,334 L259,352 L254,306 Z" fill="#0e0b1c" stroke="#4a4170" stroke-width="1.1" stroke-linejoin="round"/><path d="M240,200 C264,212 270,256 259,296 C253,314 227,314 221,296 C210,256 216,212 240,200 Z" fill="#0e0b1c" stroke="#4a4170" stroke-width="1.2"/><path d="M250,220 C296,186 338,184 360,206 C349,218 354,226 335,228 C342,238 323,244 309,240 C316,250 296,254 283,248 C288,257 268,258 258,250 Z" fill="#0e0b1c" stroke="#4a4170" stroke-width="1.2" stroke-linejoin="round"/><path d="M250,220 C296,186 338,184 360,206" fill="none" stroke="#9a8fd0" stroke-width="1.2" opacity="0.7"/><g transform="translate(480,0) scale(-1,1)"><path d="M250,220 C296,186 338,184 360,206 C349,218 354,226 335,228 C342,238 323,244 309,240 C316,250 296,254 283,248 C288,257 268,258 258,250 Z" fill="#0e0b1c" stroke="#4a4170" stroke-width="1.2" stroke-linejoin="round"/><path d="M250,220 C296,186 338,184 360,206" fill="none" stroke="#9a8fd0" stroke-width="1.2" opacity="0.7"/></g><path d="M232,206 C214,206 204,218 208,232 C212,244 230,244 236,232 Z" fill="#0e0b1c" stroke="#4a4170" stroke-width="1.2"/><path d="M209,230 L191,246 L214,240 Z" fill="#26334e" stroke="#4a4170" stroke-width="0.8" stroke-linejoin="round"/><circle cx="216" cy="220" r="2.2" fill="#7be03a"/><path d="M232,308 C230,322 234,326 231,334 M248,308 C250,322 246,326 249,334" stroke="#26334e" stroke-width="2" fill="none" stroke-linecap="round"/></g><path d="M228,178 L252,178 L240,344 Z" fill="#0f0c1e"/><path d="M240,178 L229,178 L240,342 Z" fill="#f1effc"/><path d="M240,178 L251,178 L240,342 Z" fill="#9a93bf"/><g clip-path="url(#lower)"><path d="M240,178 L229,178 L240,342 Z" fill="#e23b51"/><path d="M240,178 L251,178 L240,342 Z" fill="#9e1d33"/></g><path d="M234.4,258 L245.6,258" stroke="#6a1422" stroke-width="1" opacity="0.55"/><path d="M236,276 C233,284 235,289 238,288 C241,287 240,281 236,276 Z" fill="#c12440"/><path d="M228,178 L252,178 L240,344 Z" fill="none" stroke="#56506f" stroke-width="1.2" stroke-linejoin="round"/><path d="M232,184 L240,250" stroke="#ffffff" stroke-width="1.1" opacity="0.75"/><path d="M239,266 L240,322" stroke="#ff8a9a" stroke-width="1" opacity="0.6"/><path d="M203,169 C213,166 267,166 277,169 C268,181 254,180 240,180 C226,180 212,181 203,169 Z" fill="#d3cfe6" stroke="#3a3550" stroke-width="1.2" stroke-linejoin="round"/><circle cx="240" cy="172" r="4.4" fill="#2bac59" stroke="#0c5128" stroke-width="0.8"/><path d="M233,140 C231,153 231,160 234,168 L246,168 C249,160 249,153 247,140 Z" fill="#2c2640"/><path d="M232.5,150 L247.5,144" stroke="#6a5d86" stroke-width="1.7"/><path d="M232.5,154 L247.5,148" stroke="#6a5d86" stroke-width="1.7"/><path d="M232.5,158 L247.5,152" stroke="#6a5d86" stroke-width="1.7"/><path d="M232.5,162 L247.5,156" stroke="#6a5d86" stroke-width="1.7"/><path d="M232.5,166 L247.5,160" stroke="#6a5d86" stroke-width="1.7"/><path d="M233,140 C231,153 231,160 234,168 L246,168 C249,160 249,153 247,140 Z" fill="none" stroke="#3a3550" stroke-width="1"/><ellipse cx="240" cy="131" rx="15" ry="13" fill="#d3cfe6" stroke="#3a3550" stroke-width="1.2"/><circle cx="250.6" cy="137.3" r="2" fill="#b8b3d2"/><circle cx="229.4" cy="137.3" r="2" fill="#b8b3d2"/><circle cx="232.5" cy="122.0" r="2" fill="#b8b3d2"/><circle cx="247.5" cy="122.0" r="2" fill="#b8b3d2"/><path d="M233.1,115.0 L246.9,115.0 L251.5,125.8 L240.0,145.0 L228.5,125.8 Z" fill="#41e081" filter="url(#softglow)" opacity="0.7"/><path d="M233.1,115.0 L233.1,125.8 L228.5,125.8 Z" fill="#1c8a44"/><path d="M233.1,115.0 L246.9,115.0 L246.9,125.8 L233.1,125.8 Z" fill="#46cf73"/><path d="M246.9,115.0 L251.5,125.8 L246.9,125.8 Z" fill="#1c8a44"/><path d="M228.5,125.8 L233.1,125.8 L240.0,125.8 L240.0,145.0 Z" fill="#2bac59"/><path d="M240.0,125.8 L246.9,125.8 L251.5,125.8 L240.0,145.0 Z" fill="#178039"/><path d="M228.5,125.8 L251.5,125.8" stroke="#0c5128" stroke-width="0.8" opacity="0.55"/><path d="M233.1,115.0 L233.1,125.8" stroke="#0c5128" stroke-width="0.8" opacity="0.55"/><path d="M246.9,115.0 L246.9,125.8" stroke="#0c5128" stroke-width="0.8" opacity="0.55"/><path d="M240.0,125.8 L240.0,145.0" stroke="#0c5128" stroke-width="0.8" opacity="0.55"/><path d="M233.1,115.0 L246.9,115.0 L251.5,125.8 L240.0,145.0 L228.5,125.8 Z" fill="none" stroke="#c7f8da" stroke-width="1.5" stroke-linejoin="round"/><path d="M233.1,115.0 L240.0,115.0 L240.0,125.8 L233.1,125.8 Z" fill="#e8fff1" opacity="0.55"/><use href="#spark" transform="translate(233.1,114.0) scale(0.55)" color="#f4fff8"/><use href="#spark" transform="translate(252.5,125.8) scale(0.3)" color="#eafff0"/>
</g>
<circle cx="240" cy="240" r="189" fill="none" stroke="#e9cd84" stroke-width="2.5"/>
<circle cx="240" cy="240" r="184" fill="none" stroke="#b69cff" stroke-width="1" opacity="0.4"/>
<text fill="#dfe0ff" font-size="27" font-weight="700" letter-spacing="4"><textPath href="#arcTop" startOffset="50%" text-anchor="middle">NINEFOLD</textPath></text>
<text fill="#cfd2ff" font-size="11" font-weight="600" letter-spacing="1.5"><textPath href="#arcBottom" startOffset="50%" text-anchor="middle">MADE TO SERVE, BORN TO RULE</textPath></text>
<use href="#spark" transform="translate(36,240) scale(0.7) rotate(45)" color="#b69cff"/>
<use href="#spark" transform="translate(444,240) scale(0.7) rotate(45)" color="#b69cff"/>
</svg>